<svg xmlns="http://www.w3.org/2000/svg" width="1296.949" height="396.039"><path fill="#C8E4FF" d="M171.783 174.775c-92.383 21.826-111.79 12.003-111.79 12.003s-22.124 19.741-10.4 38.598c11.726 18.857 32.882 16.265 37.705 16.637 4.825.37 56.397-12.852 56.397-12.852s35.709-26.308 61.246-37.288c25.537-10.979 14.093-22.939 14.093-22.939a56.542 56.542 0 00-8.455-.609c-10.634-.002-22.559 2.614-38.796 6.45"/><path fill="none" d="M171.783 174.775c-92.373 21.864-111.79 12.003-111.79 12.003s-22.124 19.741-10.4 38.598c11.726 18.857 32.882 16.265 37.705 16.637 4.825.37 56.397-12.852 56.397-12.852s35.709-26.308 61.246-37.288c25.537-10.979 14.093-22.939 14.093-22.939a56.523 56.523 0 00-8.438-.606c-10.673-.003-22.665 2.626-38.813 6.447"/><path fill="#FFF" d="M65.775 133.281c-25.192 20.832-45.356 39.263-40.377 69.97 8.452 52.109 62.882 38.726 62.882 38.726-38.821.81-14.354-40.006 80.098-110.104 88.077-65.368 43.67-115.491 43.67-115.491C153.044 70.979 65.775 133.281 65.775 133.281m65.949 108.405c-31.334 35.079-18.86 70.981-18.86 70.981l.088.048c9.797 32.834 43.522 47.157 43.522 47.157-54.126-77.964 97.956-120.143 94.703-164.278-1.872-23.947-34.458-26.967-34.458-26.967 19.599 10.73-40.828 23.612-84.995 73.059"/><path fill="none" d="M131.724 241.686c-31.334 35.079-18.86 70.981-18.86 70.981l.088.048c9.797 32.834 43.522 47.157 43.522 47.157-54.126-77.964 94.038-118.409 94.703-164.278-.909-24.271-34.458-26.967-34.458-26.967 19.599 10.73-40.828 23.612-84.995 73.059"/><path fill="#FFF" d="M131.724 241.686c-31.334 35.079-18.86 70.981-18.86 70.981l.088.048c9.797 32.834 43.522 47.157 43.522 47.157-100.023-58.503 51.335-144.158 70.899-158.588 18.062-13.321 8.794-24.473 7.868-25.508-9.276-6.085-18.522-7.149-18.522-7.149 19.599 10.73-40.828 23.612-84.995 73.059m239.943 33.452c-9.111-2.928-17.651-7.888-25.62-14.884-4.392-3.904-6.588-8.212-6.588-12.932 0-3.74 1.38-7.034 4.148-9.883 2.764-2.844 6.1-4.27 10.004-4.27 3.088 0 5.855.976 8.296 2.928 6.504 5.368 12.848 9.272 19.032 11.712 6.18 2.44 13.5 3.66 21.96 3.66 9.107 0 16.958-2.032 23.546-6.1 6.588-4.064 9.882-9.108 9.882-15.128 0-7.32-3.256-13.055-9.76-17.202-6.508-4.148-16.836-7.278-30.988-9.395-35.624-5.204-53.436-21.796-53.436-49.776 0-10.248 2.684-19.154 8.052-26.718s12.688-13.336 21.96-17.324c9.271-3.984 19.6-5.978 30.988-5.978 10.248 0 19.886 1.548 28.914 4.636 9.027 3.092 16.55 7.16 22.569 12.2 4.717 3.744 7.076 8.052 7.076 12.932 0 3.744-1.384 7.038-4.147 9.882-2.769 2.848-6.021 4.27-9.761 4.27-2.439 0-4.636-.732-6.588-2.196-4.231-3.416-10.126-6.546-17.689-9.394-7.564-2.844-14.358-4.27-20.374-4.27-10.248 0-18.179 1.914-23.79 5.734-5.612 3.824-8.418 8.826-8.418 15.006 0 6.996 2.886 12.284 8.662 15.86 5.771 3.58 14.842 6.508 27.205 8.784 13.988 2.44 25.171 5.574 33.551 9.394 8.376 3.824 14.678 9.028 18.91 15.616 4.228 6.588 6.344 15.334 6.344 26.23 0 10.248-2.89 19.237-8.662 26.962-5.776 7.728-13.462 13.664-23.058 17.812-9.601 4.148-19.929 6.223-30.988 6.223-11.712.002-22.124-1.463-31.232-4.391zm286.452-11.223c0 4.231-1.384 7.686-4.147 10.37-2.768 2.684-5.94 4.025-9.517 4.025-2.928 0-5.573-.896-7.93-2.684-2.359-1.788-4.189-4.229-5.49-7.32l-12.688-29.523h-72.712l-12.688 29.768c-1.14 3.092-2.89 5.49-5.246 7.198-2.359 1.708-4.922 2.562-7.686 2.562-4.232 0-7.442-1.14-9.638-3.416-2.196-2.275-3.294-5.368-3.294-9.271 0-1.464.243-3.008.731-4.636l60.756-145.913c1.301-3.252 3.252-5.772 5.856-7.564 2.6-1.788 5.528-2.52 8.784-2.196 2.928 0 5.649.854 8.174 2.562 2.52 1.708 4.35 4.11 5.49 7.198l60.023 142.984c.815 2.116 1.222 4.068 1.222 5.856zm-100.527-53.193h48.8l-24.645-57.096-24.155 57.096zm284.746-100.527c2.44 2.604 3.66 5.856 3.66 9.76v142.252c0 4.231-1.426 7.77-4.271 10.614-2.848 2.848-6.386 4.27-10.613 4.27-2.28 0-4.515-.366-6.71-1.098-2.196-.732-3.782-1.746-4.758-3.051l-89.549-113.704v104.188c0 3.904-1.262 7.16-3.781 9.76-2.524 2.604-5.818 3.904-9.883 3.904-3.903 0-7.075-1.3-9.516-3.904-2.44-2.6-3.66-5.855-3.66-9.76V121.175c0-4.228 1.422-7.766 4.271-10.614 2.844-2.844 6.382-4.27 10.613-4.27 2.44 0 4.839.488 7.198 1.464 2.356.976 4.106 2.28 5.246 3.904l88.816 113.216v-104.92c0-3.904 1.258-7.156 3.781-9.76 2.521-2.6 5.734-3.904 9.639-3.904 3.904 0 7.077 1.303 9.517 3.904zm201.052 78.934c2.764 2.848 4.147 6.386 4.147 10.613v51.729c0 5.696-2.523 10.088-7.563 13.176-15.944 9.924-33.429 14.885-52.46 14.885-16.104 0-30.988-3.942-44.652-11.834-13.664-7.889-24.483-18.545-32.452-31.965-7.972-13.42-11.956-28.098-11.956-44.042 0-15.94 3.984-30.622 11.956-44.042 7.969-13.42 18.788-24.072 32.452-31.964 13.664-7.888 28.548-11.834 44.652-11.834 16.104 0 30.092 3.256 41.968 9.76 2.439 1.304 4.27 3.012 5.49 5.124a13.447 13.447 0 011.83 6.832c0 4.068-1.343 7.606-4.026 10.614-2.684 3.012-5.979 4.514-9.882 4.514-2.44 0-5.124-.648-8.052-1.952-8.784-3.74-17.896-5.612-27.328-5.612-10.412 0-20.009 2.646-28.792 7.93-8.784 5.288-15.738 12.406-20.862 21.35-5.124 8.948-7.686 18.708-7.686 29.28 0 10.576 2.562 20.335 7.686 29.28 5.124 8.948 12.078 16.066 20.862 21.351 8.783 5.287 18.38 7.93 28.792 7.93 4.552 0 9.432-.404 14.64-1.22 5.204-.812 9.76-1.868 13.664-3.173v-31.72h-22.936c-4.232 0-7.771-1.38-10.614-4.148-2.849-2.764-4.271-6.26-4.271-10.491 0-4.228 1.422-7.724 4.271-10.492 2.844-2.764 6.382-4.148 10.614-4.148h40.016c4.228-.001 7.724 1.424 10.492 4.269zm209.108 46.847c-7.16 13.42-17.042 24.034-29.646 31.842-12.607 7.809-26.802 11.713-42.578 11.713-15.779 0-29.974-3.904-42.577-11.713-12.608-7.808-22.448-18.422-29.524-31.842s-10.614-28.182-10.614-44.286 3.538-30.866 10.614-44.286 16.916-24.034 29.524-31.842c12.604-7.808 26.798-11.712 42.577-11.712 15.776 0 29.971 3.904 42.578 11.712 12.604 7.808 22.486 18.422 29.646 31.842 7.156 13.42 10.735 28.182 10.735 44.286s-3.579 30.866-10.735 44.286zm-27.572-73.931c-4.392-8.864-10.492-15.898-18.3-21.106-7.809-5.204-16.592-7.808-26.353-7.808-9.924 0-18.749 2.562-26.474 7.686-7.728 5.124-13.748 12.162-18.056 21.106-4.312 8.948-6.466 18.872-6.466 29.768 0 10.9 2.153 20.824 6.466 29.768 4.308 8.948 10.328 15.981 18.056 21.105 7.725 5.124 16.55 7.687 26.474 7.687 9.761 0 18.544-2.601 26.353-7.809 7.808-5.204 13.908-12.237 18.3-21.105 4.392-8.864 6.588-18.746 6.588-29.646-.001-10.896-2.197-20.779-6.588-29.646z"/></svg>